<mxfile host="app.diagrams.net" agent="Mozilla/5.0 (Windows NT 10.0; Win64; x64) AppleWebKit/537.36 (KHTML, like Gecko) Chrome/127.0.0.0 Safari/537.36 OPR/113.0.0.0" version="24.7.17">
  <diagram name="Seite-1" id="yr1NRo_N65pnKRJFqBOE">
    <mxGraphModel dx="1166" dy="1298" grid="1" gridSize="10" guides="1" tooltips="1" connect="1" arrows="1" fold="1" page="1" pageScale="1" pageWidth="1169" pageHeight="827" math="0" shadow="0">
      <root>
        <mxCell id="0" />
        <mxCell id="1" parent="0" />
        <mxCell id="Xx2GBMWKzC-lwZOI1nZM-1" value="Hardware" style="rounded=1;whiteSpace=wrap;html=1;" vertex="1" parent="1">
          <mxGeometry x="350" y="190" width="120" height="60" as="geometry" />
        </mxCell>
        <mxCell id="Xx2GBMWKzC-lwZOI1nZM-2" value="Betriebssysteme" style="rounded=1;whiteSpace=wrap;html=1;" vertex="1" parent="1">
          <mxGeometry x="200" y="570" width="120" height="60" as="geometry" />
        </mxCell>
        <mxCell id="Xx2GBMWKzC-lwZOI1nZM-3" value="Software" style="rounded=1;whiteSpace=wrap;html=1;" vertex="1" parent="1">
          <mxGeometry x="830" y="190" width="120" height="60" as="geometry" />
        </mxCell>
        <mxCell id="Xx2GBMWKzC-lwZOI1nZM-4" value="Windows" style="ellipse;whiteSpace=wrap;html=1;strokeColor=#009900;" vertex="1" parent="1">
          <mxGeometry x="50" y="530" width="100" height="70" as="geometry" />
        </mxCell>
        <mxCell id="Xx2GBMWKzC-lwZOI1nZM-5" value="Linux" style="ellipse;whiteSpace=wrap;html=1;strokeColor=#FF0000;" vertex="1" parent="1">
          <mxGeometry x="190" y="700" width="100" height="60" as="geometry" />
        </mxCell>
        <mxCell id="Xx2GBMWKzC-lwZOI1nZM-6" value="MacOS" style="ellipse;whiteSpace=wrap;html=1;strokeColor=#009900;" vertex="1" parent="1">
          <mxGeometry x="60" y="645" width="100" height="60" as="geometry" />
        </mxCell>
        <mxCell id="Xx2GBMWKzC-lwZOI1nZM-7" value="andere" style="ellipse;whiteSpace=wrap;html=1;strokeColor=#CC6600;" vertex="1" parent="1">
          <mxGeometry x="330" y="657.5" width="100" height="65" as="geometry" />
        </mxCell>
        <mxCell id="Xx2GBMWKzC-lwZOI1nZM-8" value="get (user_id course_id)" style="text;html=1;align=center;verticalAlign=middle;whiteSpace=wrap;rounded=0;" vertex="1" parent="1">
          <mxGeometry x="50" y="10" width="160" height="30" as="geometry" />
        </mxCell>
        <mxCell id="Xx2GBMWKzC-lwZOI1nZM-9" value="Aufbau eines PCs" style="ellipse;whiteSpace=wrap;html=1;strokeColor=#009900;" vertex="1" parent="1">
          <mxGeometry x="360" y="50" width="120" height="80" as="geometry" />
        </mxCell>
        <mxCell id="Xx2GBMWKzC-lwZOI1nZM-11" value="Bauformen" style="ellipse;whiteSpace=wrap;html=1;strokeColor=#009900;" vertex="1" parent="1">
          <mxGeometry x="210" y="90" width="100" height="70" as="geometry" />
        </mxCell>
        <mxCell id="Xx2GBMWKzC-lwZOI1nZM-17" style="edgeStyle=orthogonalEdgeStyle;rounded=0;orthogonalLoop=1;jettySize=auto;html=1;exitX=0;exitY=0.5;exitDx=0;exitDy=0;entryX=1;entryY=0.5;entryDx=0;entryDy=0;" edge="1" parent="1" source="Xx2GBMWKzC-lwZOI1nZM-12" target="Xx2GBMWKzC-lwZOI1nZM-16">
          <mxGeometry relative="1" as="geometry" />
        </mxCell>
        <mxCell id="Xx2GBMWKzC-lwZOI1nZM-12" value="Wie funktionieren die Bauteile?" style="ellipse;whiteSpace=wrap;html=1;strokeColor=#994C00;" vertex="1" parent="1">
          <mxGeometry x="190" y="200" width="100" height="70" as="geometry" />
        </mxCell>
        <mxCell id="Xx2GBMWKzC-lwZOI1nZM-14" value="Datenblätter" style="ellipse;whiteSpace=wrap;html=1;strokeColor=#994C00;" vertex="1" parent="1">
          <mxGeometry x="534.5" y="80" width="100" height="70" as="geometry" />
        </mxCell>
        <mxCell id="Xx2GBMWKzC-lwZOI1nZM-57" style="edgeStyle=none;rounded=0;orthogonalLoop=1;jettySize=auto;html=1;exitX=0;exitY=1;exitDx=0;exitDy=0;entryX=1;entryY=0;entryDx=0;entryDy=0;" edge="1" parent="1" source="Xx2GBMWKzC-lwZOI1nZM-15" target="Xx2GBMWKzC-lwZOI1nZM-18">
          <mxGeometry relative="1" as="geometry" />
        </mxCell>
        <mxCell id="Xx2GBMWKzC-lwZOI1nZM-15" value="Technische Kenngrößen" style="ellipse;whiteSpace=wrap;html=1;strokeColor=#994C00;" vertex="1" parent="1">
          <mxGeometry x="270" y="300" width="100" height="70" as="geometry" />
        </mxCell>
        <mxCell id="Xx2GBMWKzC-lwZOI1nZM-16" value="Tieferes Verständnis" style="ellipse;whiteSpace=wrap;html=1;strokeColor=#994C00;" vertex="1" parent="1">
          <mxGeometry x="70" y="200" width="100" height="70" as="geometry" />
        </mxCell>
        <mxCell id="Xx2GBMWKzC-lwZOI1nZM-18" value="Individuelle hardwarespezifische Kenngrößen" style="ellipse;whiteSpace=wrap;html=1;strokeColor=#994C00;" vertex="1" parent="1">
          <mxGeometry x="150" y="370" width="120" height="70" as="geometry" />
        </mxCell>
        <mxCell id="Xx2GBMWKzC-lwZOI1nZM-20" value="Software auswählen und einrichten" style="ellipse;whiteSpace=wrap;html=1;strokeColor=#009900;" vertex="1" parent="1">
          <mxGeometry x="780" y="85" width="120" height="80" as="geometry" />
        </mxCell>
        <mxCell id="Xx2GBMWKzC-lwZOI1nZM-21" value="andere Themen" style="rounded=1;whiteSpace=wrap;html=1;" vertex="1" parent="1">
          <mxGeometry x="1090" y="701" width="120" height="60" as="geometry" />
        </mxCell>
        <mxCell id="Xx2GBMWKzC-lwZOI1nZM-58" style="edgeStyle=none;rounded=0;orthogonalLoop=1;jettySize=auto;html=1;exitX=0;exitY=1;exitDx=0;exitDy=0;entryX=0.5;entryY=0;entryDx=0;entryDy=0;" edge="1" parent="1" source="Xx2GBMWKzC-lwZOI1nZM-23" target="Xx2GBMWKzC-lwZOI1nZM-24">
          <mxGeometry relative="1" as="geometry" />
        </mxCell>
        <mxCell id="Xx2GBMWKzC-lwZOI1nZM-59" style="edgeStyle=none;rounded=0;orthogonalLoop=1;jettySize=auto;html=1;exitX=1;exitY=1;exitDx=0;exitDy=0;entryX=0.5;entryY=0;entryDx=0;entryDy=0;" edge="1" parent="1" source="Xx2GBMWKzC-lwZOI1nZM-23" target="Xx2GBMWKzC-lwZOI1nZM-25">
          <mxGeometry relative="1" as="geometry" />
        </mxCell>
        <mxCell id="Xx2GBMWKzC-lwZOI1nZM-23" value="Grundlagen Elektrotechnik" style="ellipse;whiteSpace=wrap;html=1;strokeColor=#FF0000;" vertex="1" parent="1">
          <mxGeometry x="1010" y="801" width="100" height="60" as="geometry" />
        </mxCell>
        <mxCell id="Xx2GBMWKzC-lwZOI1nZM-24" value="Energiekosten berechnen" style="ellipse;whiteSpace=wrap;html=1;strokeColor=#FF0000;" vertex="1" parent="1">
          <mxGeometry x="950" y="891" width="100" height="60" as="geometry" />
        </mxCell>
        <mxCell id="Xx2GBMWKzC-lwZOI1nZM-25" value="Energiebedarf berechnen" style="ellipse;whiteSpace=wrap;html=1;strokeColor=#FF0000;" vertex="1" parent="1">
          <mxGeometry x="1070" y="891" width="100" height="60" as="geometry" />
        </mxCell>
        <mxCell id="Xx2GBMWKzC-lwZOI1nZM-29" value="Zertifikate und Kennzeichnungen" style="ellipse;whiteSpace=wrap;html=1;strokeColor=#FF0000;" vertex="1" parent="1">
          <mxGeometry x="1160" y="806" width="110" height="65" as="geometry" />
        </mxCell>
        <mxCell id="Xx2GBMWKzC-lwZOI1nZM-31" value="Green IT" style="ellipse;whiteSpace=wrap;html=1;strokeColor=#CC6600;" vertex="1" parent="1">
          <mxGeometry x="1355" y="630" width="100" height="65" as="geometry" />
        </mxCell>
        <mxCell id="Xx2GBMWKzC-lwZOI1nZM-60" style="edgeStyle=none;rounded=0;orthogonalLoop=1;jettySize=auto;html=1;exitX=1;exitY=0;exitDx=0;exitDy=0;entryX=0;entryY=1;entryDx=0;entryDy=0;" edge="1" parent="1" source="Xx2GBMWKzC-lwZOI1nZM-32" target="Xx2GBMWKzC-lwZOI1nZM-31">
          <mxGeometry relative="1" as="geometry" />
        </mxCell>
        <mxCell id="Xx2GBMWKzC-lwZOI1nZM-32" value="Nachhaltigkeit" style="ellipse;whiteSpace=wrap;html=1;strokeColor=#009900;" vertex="1" parent="1">
          <mxGeometry x="1250" y="711" width="100" height="70" as="geometry" />
        </mxCell>
        <mxCell id="Xx2GBMWKzC-lwZOI1nZM-34" value="Arbeits- und Gesundheitsschutz" style="ellipse;whiteSpace=wrap;html=1;strokeColor=#CC6600;" vertex="1" parent="1">
          <mxGeometry x="1195" y="580" width="120" height="70" as="geometry" />
        </mxCell>
        <mxCell id="Xx2GBMWKzC-lwZOI1nZM-39" value="&lt;font style=&quot;font-size: 48px;&quot;&gt;Lernfeld 2&lt;/font&gt;" style="rounded=0;whiteSpace=wrap;html=1;" vertex="1" parent="1">
          <mxGeometry x="550" y="398" width="250" height="97" as="geometry" />
        </mxCell>
        <mxCell id="Xx2GBMWKzC-lwZOI1nZM-40" value="Kundenkommunikation" style="rounded=1;whiteSpace=wrap;html=1;" vertex="1" parent="1">
          <mxGeometry x="585" y="680" width="145" height="65" as="geometry" />
        </mxCell>
        <mxCell id="Xx2GBMWKzC-lwZOI1nZM-61" style="edgeStyle=none;rounded=0;orthogonalLoop=1;jettySize=auto;html=1;exitX=1;exitY=1;exitDx=0;exitDy=0;entryX=0;entryY=0.5;entryDx=0;entryDy=0;" edge="1" parent="1" source="Xx2GBMWKzC-lwZOI1nZM-41" target="Xx2GBMWKzC-lwZOI1nZM-46">
          <mxGeometry relative="1" as="geometry" />
        </mxCell>
        <mxCell id="Xx2GBMWKzC-lwZOI1nZM-62" style="edgeStyle=none;rounded=0;orthogonalLoop=1;jettySize=auto;html=1;exitX=1;exitY=0.5;exitDx=0;exitDy=0;entryX=0;entryY=1;entryDx=0;entryDy=0;" edge="1" parent="1" source="Xx2GBMWKzC-lwZOI1nZM-41" target="Xx2GBMWKzC-lwZOI1nZM-43">
          <mxGeometry relative="1" as="geometry" />
        </mxCell>
        <mxCell id="Xx2GBMWKzC-lwZOI1nZM-63" style="edgeStyle=none;rounded=0;orthogonalLoop=1;jettySize=auto;html=1;exitX=0.5;exitY=0;exitDx=0;exitDy=0;entryX=0.5;entryY=1;entryDx=0;entryDy=0;" edge="1" parent="1" source="Xx2GBMWKzC-lwZOI1nZM-41" target="Xx2GBMWKzC-lwZOI1nZM-42">
          <mxGeometry relative="1" as="geometry" />
        </mxCell>
        <mxCell id="Xx2GBMWKzC-lwZOI1nZM-41" value="Anwendungen entwickeln" style="ellipse;whiteSpace=wrap;html=1;strokeColor=#994C00;" vertex="1" parent="1">
          <mxGeometry x="950" y="105" width="100" height="70" as="geometry" />
        </mxCell>
        <mxCell id="Xx2GBMWKzC-lwZOI1nZM-42" value="Java" style="ellipse;whiteSpace=wrap;html=1;strokeColor=#FF0000;" vertex="1" parent="1">
          <mxGeometry x="990" y="5" width="100" height="60" as="geometry" />
        </mxCell>
        <mxCell id="Xx2GBMWKzC-lwZOI1nZM-43" value="Python" style="ellipse;whiteSpace=wrap;html=1;strokeColor=#009900;" vertex="1" parent="1">
          <mxGeometry x="1090" y="40" width="100" height="70" as="geometry" />
        </mxCell>
        <mxCell id="Xx2GBMWKzC-lwZOI1nZM-50" style="edgeStyle=orthogonalEdgeStyle;rounded=0;orthogonalLoop=1;jettySize=auto;html=1;exitX=1;exitY=0.5;exitDx=0;exitDy=0;entryX=0;entryY=0.5;entryDx=0;entryDy=0;" edge="1" parent="1" source="Xx2GBMWKzC-lwZOI1nZM-46" target="Xx2GBMWKzC-lwZOI1nZM-49">
          <mxGeometry relative="1" as="geometry" />
        </mxCell>
        <mxCell id="Xx2GBMWKzC-lwZOI1nZM-46" value="Struktogramme / Programmablaufpläne" style="ellipse;whiteSpace=wrap;html=1;strokeColor=#994C00;" vertex="1" parent="1">
          <mxGeometry x="1090" y="150" width="150" height="70" as="geometry" />
        </mxCell>
        <mxCell id="Xx2GBMWKzC-lwZOI1nZM-49" value="Darstellung von Algorithmen" style="ellipse;whiteSpace=wrap;html=1;strokeColor=#FF0000;" vertex="1" parent="1">
          <mxGeometry x="1300" y="155" width="100" height="60" as="geometry" />
        </mxCell>
        <mxCell id="Xx2GBMWKzC-lwZOI1nZM-51" value="Waren beschaffen und Angebote erstellen" style="rounded=1;whiteSpace=wrap;html=1;" vertex="1" parent="1">
          <mxGeometry x="1000" y="430" width="145" height="65" as="geometry" />
        </mxCell>
        <mxCell id="Xx2GBMWKzC-lwZOI1nZM-52" value="Pitch vorbereiten" style="ellipse;whiteSpace=wrap;html=1;strokeColor=#CC6600;" vertex="1" parent="1">
          <mxGeometry x="485" y="796" width="100" height="65" as="geometry" />
        </mxCell>
        <mxCell id="Xx2GBMWKzC-lwZOI1nZM-55" style="edgeStyle=orthogonalEdgeStyle;rounded=0;orthogonalLoop=1;jettySize=auto;html=1;exitX=0.5;exitY=1;exitDx=0;exitDy=0;entryX=0.5;entryY=0;entryDx=0;entryDy=0;" edge="1" parent="1" source="Xx2GBMWKzC-lwZOI1nZM-53" target="Xx2GBMWKzC-lwZOI1nZM-54">
          <mxGeometry relative="1" as="geometry" />
        </mxCell>
        <mxCell id="Xx2GBMWKzC-lwZOI1nZM-53" value="Gesprächsrahmen" style="ellipse;whiteSpace=wrap;html=1;strokeColor=#CC6600;" vertex="1" parent="1">
          <mxGeometry x="585" y="850" width="100" height="65" as="geometry" />
        </mxCell>
        <mxCell id="Xx2GBMWKzC-lwZOI1nZM-54" value="Schulz von nicht schon wieder" style="ellipse;whiteSpace=wrap;html=1;strokeColor=#009900;" vertex="1" parent="1">
          <mxGeometry x="585" y="950" width="100" height="60" as="geometry" />
        </mxCell>
        <mxCell id="Xx2GBMWKzC-lwZOI1nZM-64" value="Kundengespräch dokumentieren" style="ellipse;whiteSpace=wrap;html=1;strokeColor=#FF0000;" vertex="1" parent="1">
          <mxGeometry x="710" y="840" width="100" height="65" as="geometry" />
        </mxCell>
        <mxCell id="Xx2GBMWKzC-lwZOI1nZM-65" value="Customer meeting" style="ellipse;whiteSpace=wrap;html=1;strokeColor=#CC6600;" vertex="1" parent="1">
          <mxGeometry x="800" y="762" width="100" height="65" as="geometry" />
        </mxCell>
      </root>
    </mxGraphModel>
  </diagram>
</mxfile>
